<svg xmlns="http://www.w3.org/2000/svg" xmlns:xlink="http://www.w3.org/1999/xlink" width="300" zoomAndPan="magnify" viewBox="0 0 224.87999 52.499999" height="70" preserveAspectRatio="xMidYMid meet" version="1.0"><defs><g/><clipPath id="8ba0dc0c95"><path d="M 1 0 L 223.761719 0 L 223.761719 52.003906 L 1 52.003906 Z M 1 0 " clip-rule="nonzero"/></clipPath><clipPath id="3ce5b0a328"><path d="M 0.292969 0.0664062 L 20 0.0664062 L 20 20 L 0.292969 20 Z M 0.292969 0.0664062 " clip-rule="nonzero"/></clipPath><clipPath id="9382f8e494"><rect x="0" width="21" y="0" height="26"/></clipPath><clipPath id="7ae7cb3341"><path d="M 1 1 L 14.890625 1 L 14.890625 21 L 1 21 Z M 1 1 " clip-rule="nonzero"/></clipPath><clipPath id="f26ff68f1b"><rect x="0" width="15" y="0" height="27"/></clipPath><clipPath id="d74c5870b5"><path d="M 0.164062 3 L 19 3 L 19 24 L 0.164062 24 Z M 0.164062 3 " clip-rule="nonzero"/></clipPath><clipPath id="6a7ad5fd76"><rect x="0" width="134" y="0" height="29"/></clipPath></defs><g clip-path="url(#8ba0dc0c95)"><path fill="#ffffff" d="M 1 0 L 223.878906 0 L 223.878906 52.003906 L 1 52.003906 Z M 1 0 " fill-opacity="1" fill-rule="nonzero"/><path fill="#100e09" d="M 1 0 L 223.878906 0 L 223.878906 52.003906 L 1 52.003906 Z M 1 0 " fill-opacity="1" fill-rule="nonzero"/></g><g transform="matrix(1, 0, 0, 1, 29, 18)"><g clip-path="url(#9382f8e494)"><g clip-path="url(#3ce5b0a328)"><g fill="#ffffff" fill-opacity="1"><g transform="translate(0.515729, 19.640021)"><g><path d="M 0.445312 0 L 0.445312 -0.652344 L 0.765625 -0.652344 C 1.324219 -0.652344 1.714844 -0.71875 1.949219 -0.851562 C 2.121094 -0.953125 2.210938 -1.238281 2.210938 -1.710938 L 2.210938 -16.910156 C 2.210938 -17.382812 2.121094 -17.671875 1.949219 -17.769531 C 1.714844 -17.902344 1.324219 -17.96875 0.765625 -17.96875 L 0.445312 -17.96875 L 0.445312 -18.941406 L 9.09375 -18.941406 C 9.789062 -18.941406 10.570312 -18.886719 11.433594 -18.773438 C 12.3125 -18.660156 13.191406 -18.429688 14.074219 -18.089844 C 14.972656 -17.742188 15.800781 -17.226562 16.5625 -16.535156 C 17.332031 -15.835938 17.945312 -14.921875 18.40625 -13.785156 C 18.867188 -12.65625 19.09375 -11.246094 19.09375 -9.554688 C 19.09375 -8.277344 18.914062 -7.050781 18.558594 -5.871094 C 18.195312 -4.675781 17.597656 -3.617188 16.765625 -2.6875 C 15.929688 -1.753906 14.824219 -1.019531 13.449219 -0.480469 C 12.085938 0.0507812 10.410156 0.320312 8.429688 0.320312 L 0.445312 0.320312 Z M 1.085938 0 L 0.765625 0 L 0.765625 -0.320312 L 8.429688 -0.320312 C 10.332031 -0.320312 11.925781 -0.570312 13.21875 -1.078125 C 14.5 -1.578125 15.523438 -2.257812 16.289062 -3.113281 C 17.058594 -3.972656 17.609375 -4.953125 17.945312 -6.058594 C 18.285156 -7.175781 18.457031 -8.34375 18.457031 -9.554688 C 18.457031 -11.164062 18.242188 -12.496094 17.816406 -13.546875 C 17.390625 -14.589844 16.832031 -15.429688 16.132812 -16.0625 C 15.429688 -16.699219 14.667969 -17.175781 13.84375 -17.492188 C 13.007812 -17.816406 12.179688 -18.03125 11.351562 -18.140625 C 10.515625 -18.25 9.761719 -18.300781 9.09375 -18.300781 L 0.765625 -18.300781 L 0.765625 -18.621094 L 1.085938 -18.621094 L 1.085938 -18.289062 L 0.765625 -18.289062 L 0.765625 -18.609375 C 1.4375 -18.609375 1.9375 -18.515625 2.265625 -18.324219 C 2.65625 -18.101562 2.847656 -17.628906 2.847656 -16.910156 L 2.847656 -1.710938 C 2.847656 -0.992188 2.65625 -0.519531 2.265625 -0.296875 C 1.9375 -0.109375 1.4375 -0.0117188 0.765625 -0.0117188 L 0.765625 -0.332031 L 1.085938 -0.332031 Z M 8.199219 -0.652344 C 9.746094 -0.652344 11.007812 -0.910156 11.984375 -1.429688 C 12.953125 -1.949219 13.707031 -2.640625 14.238281 -3.5 C 14.777344 -4.378906 15.152344 -5.339844 15.359375 -6.382812 C 15.566406 -7.445312 15.671875 -8.5 15.671875 -9.554688 C 15.671875 -11.445312 15.363281 -13.015625 14.746094 -14.265625 C 14.136719 -15.503906 13.304688 -16.429688 12.253906 -17.042969 C 11.195312 -17.660156 9.988281 -17.96875 8.632812 -17.96875 C 7.476562 -17.96875 6.660156 -17.894531 6.191406 -17.742188 C 6.007812 -17.683594 5.875 -17.59375 5.792969 -17.46875 C 5.703125 -17.335938 5.65625 -17.160156 5.65625 -16.9375 L 5.65625 -1.710938 C 5.65625 -1.277344 5.808594 -1.003906 6.105469 -0.886719 C 6.503906 -0.730469 7.203125 -0.652344 8.199219 -0.652344 Z M 8.199219 -0.0117188 C 7.121094 -0.0117188 6.34375 -0.105469 5.875 -0.289062 C 5.304688 -0.511719 5.019531 -0.988281 5.019531 -1.710938 L 5.019531 -16.9375 C 5.019531 -17.289062 5.101562 -17.589844 5.261719 -17.828125 C 5.429688 -18.074219 5.671875 -18.246094 5.996094 -18.351562 C 6.527344 -18.523438 7.410156 -18.609375 8.632812 -18.609375 C 10.105469 -18.609375 11.417969 -18.269531 12.574219 -17.59375 C 13.738281 -16.914062 14.652344 -15.898438 15.320312 -14.546875 C 15.980469 -13.210938 16.308594 -11.542969 16.308594 -9.554688 C 16.308594 -8.460938 16.203125 -7.363281 15.984375 -6.261719 C 15.765625 -5.140625 15.363281 -4.109375 14.78125 -3.164062 C 14.1875 -2.207031 13.355469 -1.441406 12.285156 -0.867188 C 11.214844 -0.296875 9.855469 -0.0117188 8.199219 -0.0117188 Z M 8.199219 -0.0117188 "/></g></g></g></g><g fill="#f5ad18" fill-opacity="1"><g transform="translate(0.515729, 19.640021)"><g><path d="M 0.765625 0 L 0.765625 -0.328125 C 1.378906 -0.328125 1.828125 -0.40625 2.109375 -0.5625 C 2.390625 -0.726562 2.53125 -1.113281 2.53125 -1.71875 L 2.53125 -16.90625 C 2.53125 -17.507812 2.390625 -17.890625 2.109375 -18.046875 C 1.828125 -18.210938 1.378906 -18.296875 0.765625 -18.296875 L 0.765625 -18.625 L 9.09375 -18.625 C 9.769531 -18.625 10.535156 -18.566406 11.390625 -18.453125 C 12.242188 -18.347656 13.097656 -18.128906 13.953125 -17.796875 C 14.816406 -17.460938 15.613281 -16.960938 16.34375 -16.296875 C 17.082031 -15.628906 17.671875 -14.75 18.109375 -13.65625 C 18.554688 -12.570312 18.78125 -11.203125 18.78125 -9.546875 C 18.78125 -8.304688 18.601562 -7.109375 18.25 -5.953125 C 17.90625 -4.804688 17.332031 -3.785156 16.53125 -2.890625 C 15.726562 -2.003906 14.660156 -1.300781 13.328125 -0.78125 C 12.003906 -0.257812 10.375 0 8.4375 0 Z M 8.203125 -0.328125 C 9.804688 -0.328125 11.117188 -0.597656 12.140625 -1.140625 C 13.160156 -1.691406 13.953125 -2.421875 14.515625 -3.328125 C 15.078125 -4.242188 15.460938 -5.238281 15.671875 -6.3125 C 15.890625 -7.394531 16 -8.472656 16 -9.546875 C 16 -11.492188 15.675781 -13.113281 15.03125 -14.40625 C 14.394531 -15.695312 13.519531 -16.664062 12.40625 -17.3125 C 11.300781 -17.96875 10.046875 -18.296875 8.640625 -18.296875 C 7.441406 -18.296875 6.59375 -18.210938 6.09375 -18.046875 C 5.59375 -17.890625 5.34375 -17.519531 5.34375 -16.9375 L 5.34375 -1.71875 C 5.34375 -1.132812 5.554688 -0.753906 5.984375 -0.578125 C 6.421875 -0.410156 7.160156 -0.328125 8.203125 -0.328125 Z M 8.203125 -0.328125 "/></g></g></g></g></g><g transform="matrix(1, 0, 0, 1, 27, 14)"><g clip-path="url(#f26ff68f1b)"><g clip-path="url(#7ae7cb3341)"><g fill="#ffffff" fill-opacity="1"><g transform="translate(0.394793, 20.295483)"><g><path d="M 0.957031 0 L 0.957031 -7.984375 L 1.929688 -7.984375 L 1.929688 -7.664062 C 1.929688 -6.007812 2.164062 -4.660156 2.640625 -3.621094 C 3.105469 -2.597656 3.738281 -1.847656 4.53125 -1.371094 C 5.332031 -0.890625 6.222656 -0.652344 7.203125 -0.652344 C 7.8125 -0.652344 8.367188 -0.742188 8.871094 -0.925781 C 9.34375 -1.097656 9.722656 -1.382812 10.007812 -1.78125 C 10.292969 -2.179688 10.433594 -2.714844 10.433594 -3.398438 C 10.433594 -4.042969 10.230469 -4.632812 9.824219 -5.171875 C 9.390625 -5.742188 8.824219 -6.292969 8.121094 -6.820312 C 7.402344 -7.363281 6.644531 -7.898438 5.851562 -8.433594 C 5.042969 -8.972656 4.273438 -9.535156 3.542969 -10.121094 C 2.792969 -10.722656 2.183594 -11.375 1.714844 -12.085938 C 1.226562 -12.820312 0.984375 -13.628906 0.984375 -14.507812 C 0.984375 -15.574219 1.277344 -16.460938 1.863281 -17.164062 C 2.433594 -17.855469 3.152344 -18.371094 4.019531 -18.714844 C 4.875 -19.054688 5.742188 -19.222656 6.617188 -19.222656 C 7.292969 -19.222656 7.871094 -19.15625 8.351562 -19.019531 C 8.824219 -18.882812 9.234375 -18.722656 9.582031 -18.53125 C 9.898438 -18.355469 10.1875 -18.203125 10.445312 -18.078125 C 10.667969 -17.972656 10.878906 -17.917969 11.085938 -17.917969 C 11.324219 -17.917969 11.46875 -17.953125 11.523438 -18.027344 C 11.597656 -18.121094 11.636719 -18.320312 11.636719 -18.621094 L 11.636719 -18.941406 L 12.605469 -18.941406 L 12.605469 -12.273438 L 11.636719 -12.273438 L 11.636719 -12.59375 C 11.636719 -13.683594 11.429688 -14.636719 11.019531 -15.449219 C 10.609375 -16.257812 10.054688 -16.886719 9.355469 -17.332031 C 8.660156 -17.773438 7.867188 -17.996094 6.972656 -17.996094 C 6.046875 -17.996094 5.390625 -17.789062 5.011719 -17.371094 C 4.625 -16.949219 4.433594 -16.402344 4.433594 -15.734375 C 4.433594 -14.96875 4.632812 -14.292969 5.039062 -13.707031 C 5.460938 -13.097656 6.007812 -12.542969 6.679688 -12.046875 C 7.371094 -11.53125 8.105469 -11.027344 8.882812 -10.539062 C 9.675781 -10.039062 10.425781 -9.507812 11.132812 -8.949219 C 11.855469 -8.375 12.449219 -7.730469 12.914062 -7.019531 C 13.390625 -6.285156 13.628906 -5.425781 13.628906 -4.445312 C 13.628906 -3.527344 13.441406 -2.6875 13.070312 -1.929688 C 12.691406 -1.152344 12.0625 -0.53125 11.183594 -0.0625 C 10.320312 0.394531 9.136719 0.625 7.636719 0.625 C 6.914062 0.625 6.300781 0.5625 5.796875 0.4375 C 5.300781 0.3125 4.871094 0.167969 4.503906 -0.00390625 C 4.15625 -0.164062 3.84375 -0.300781 3.558594 -0.421875 C 3.304688 -0.523438 3.046875 -0.574219 2.785156 -0.574219 C 2.464844 -0.574219 2.234375 -0.523438 2.097656 -0.417969 C 1.984375 -0.332031 1.929688 -0.191406 1.929688 0 L 1.929688 0.320312 L 0.957031 0.320312 Z M 1.597656 0 L 1.277344 0 L 1.277344 -0.320312 L 1.609375 -0.320312 L 1.609375 0 L 1.289062 0 C 1.289062 -0.402344 1.429688 -0.710938 1.710938 -0.925781 C 1.960938 -1.117188 2.320312 -1.214844 2.785156 -1.214844 C 3.132812 -1.214844 3.472656 -1.144531 3.800781 -1.011719 C 4.09375 -0.890625 4.417969 -0.746094 4.769531 -0.582031 C 5.101562 -0.429688 5.496094 -0.296875 5.953125 -0.183594 C 6.402344 -0.0703125 6.964844 -0.0117188 7.636719 -0.0117188 C 9.03125 -0.0117188 10.113281 -0.21875 10.886719 -0.625 C 11.640625 -1.027344 12.179688 -1.554688 12.5 -2.210938 C 12.824219 -2.878906 12.988281 -3.625 12.988281 -4.445312 C 12.988281 -5.300781 12.785156 -6.042969 12.375 -6.671875 C 11.953125 -7.324219 11.40625 -7.914062 10.734375 -8.449219 C 10.046875 -8.992188 9.3125 -9.511719 8.539062 -10 C 7.75 -10.496094 7.003906 -11.007812 6.296875 -11.53125 C 5.570312 -12.074219 4.976562 -12.675781 4.515625 -13.34375 C 4.035156 -14.039062 3.792969 -14.835938 3.792969 -15.734375 C 3.792969 -16.566406 4.042969 -17.257812 4.539062 -17.800781 C 5.046875 -18.355469 5.859375 -18.636719 6.972656 -18.636719 C 7.988281 -18.636719 8.898438 -18.378906 9.699219 -17.871094 C 10.5 -17.363281 11.128906 -16.652344 11.589844 -15.738281 C 12.046875 -14.832031 12.273438 -13.785156 12.273438 -12.59375 L 11.953125 -12.59375 L 11.953125 -12.914062 L 12.285156 -12.914062 L 12.285156 -12.59375 L 11.96875 -12.59375 L 11.96875 -18.621094 L 12.285156 -18.621094 L 12.285156 -18.300781 L 11.953125 -18.300781 L 11.953125 -18.621094 L 12.273438 -18.621094 C 12.273438 -18.175781 12.191406 -17.84375 12.027344 -17.632812 C 11.84375 -17.398438 11.53125 -17.28125 11.085938 -17.28125 C 10.78125 -17.28125 10.476562 -17.355469 10.167969 -17.503906 C 9.898438 -17.632812 9.601562 -17.789062 9.269531 -17.972656 C 8.96875 -18.140625 8.605469 -18.28125 8.175781 -18.402344 C 7.753906 -18.523438 7.234375 -18.582031 6.617188 -18.582031 C 5.820312 -18.582031 5.035156 -18.429688 4.253906 -18.121094 C 3.488281 -17.816406 2.855469 -17.363281 2.351562 -16.757812 C 1.867188 -16.167969 1.621094 -15.421875 1.621094 -14.507812 C 1.621094 -13.757812 1.828125 -13.066406 2.246094 -12.4375 C 2.679688 -11.785156 3.242188 -11.179688 3.941406 -10.621094 C 4.660156 -10.046875 5.414062 -9.496094 6.207031 -8.964844 C 7.011719 -8.421875 7.777344 -7.878906 8.507812 -7.332031 C 9.253906 -6.769531 9.863281 -6.175781 10.332031 -5.558594 C 10.828125 -4.902344 11.074219 -4.183594 11.074219 -3.398438 C 11.074219 -2.578125 10.890625 -1.917969 10.527344 -1.410156 C 10.167969 -0.90625 9.6875 -0.542969 9.089844 -0.324219 C 8.515625 -0.117188 7.886719 -0.0117188 7.203125 -0.0117188 C 6.105469 -0.0117188 5.105469 -0.285156 4.203125 -0.824219 C 3.296875 -1.371094 2.582031 -2.210938 2.058594 -3.355469 C 1.546875 -4.476562 1.289062 -5.914062 1.289062 -7.664062 L 1.609375 -7.664062 L 1.609375 -7.34375 L 1.277344 -7.34375 L 1.277344 -7.664062 L 1.597656 -7.664062 Z M 1.597656 0 "/></g></g></g></g><g fill="#f5ad18" fill-opacity="1"><g transform="translate(0.394793, 20.295483)"><g><path d="M 1.28125 0 L 1.28125 -7.65625 L 1.609375 -7.65625 C 1.609375 -5.957031 1.851562 -4.566406 2.34375 -3.484375 C 2.84375 -2.398438 3.515625 -1.601562 4.359375 -1.09375 C 5.210938 -0.582031 6.160156 -0.328125 7.203125 -0.328125 C 7.847656 -0.328125 8.4375 -0.425781 8.96875 -0.625 C 9.507812 -0.820312 9.941406 -1.144531 10.265625 -1.59375 C 10.585938 -2.050781 10.75 -2.648438 10.75 -3.390625 C 10.75 -4.109375 10.523438 -4.765625 10.078125 -5.359375 C 9.628906 -5.960938 9.039062 -6.535156 8.3125 -7.078125 C 7.59375 -7.617188 6.832031 -8.15625 6.03125 -8.6875 C 5.226562 -9.226562 4.460938 -9.785156 3.734375 -10.359375 C 3.015625 -10.941406 2.425781 -11.570312 1.96875 -12.25 C 1.519531 -12.9375 1.296875 -13.691406 1.296875 -14.515625 C 1.296875 -15.503906 1.5625 -16.320312 2.09375 -16.96875 C 2.632812 -17.613281 3.3125 -18.097656 4.125 -18.421875 C 4.945312 -18.742188 5.773438 -18.90625 6.609375 -18.90625 C 7.265625 -18.90625 7.816406 -18.835938 8.265625 -18.703125 C 8.710938 -18.578125 9.097656 -18.425781 9.421875 -18.25 C 9.742188 -18.070312 10.035156 -17.921875 10.296875 -17.796875 C 10.566406 -17.671875 10.832031 -17.609375 11.09375 -17.609375 C 11.425781 -17.609375 11.648438 -17.679688 11.765625 -17.828125 C 11.890625 -17.984375 11.953125 -18.25 11.953125 -18.625 L 12.28125 -18.625 L 12.28125 -12.59375 L 11.953125 -12.59375 C 11.953125 -13.738281 11.734375 -14.738281 11.296875 -15.59375 C 10.867188 -16.457031 10.28125 -17.125 9.53125 -17.59375 C 8.78125 -18.070312 7.925781 -18.3125 6.96875 -18.3125 C 5.945312 -18.3125 5.210938 -18.066406 4.765625 -17.578125 C 4.328125 -17.097656 4.109375 -16.484375 4.109375 -15.734375 C 4.109375 -14.898438 4.328125 -14.160156 4.765625 -13.515625 C 5.210938 -12.878906 5.785156 -12.300781 6.484375 -11.78125 C 7.179688 -11.269531 7.921875 -10.765625 8.703125 -10.265625 C 9.492188 -9.773438 10.238281 -9.253906 10.9375 -8.703125 C 11.632812 -8.148438 12.203125 -7.53125 12.640625 -6.84375 C 13.085938 -6.164062 13.3125 -5.363281 13.3125 -4.4375 C 13.3125 -3.570312 13.132812 -2.78125 12.78125 -2.0625 C 12.4375 -1.351562 11.851562 -0.78125 11.03125 -0.34375 C 10.21875 0.09375 9.085938 0.3125 7.640625 0.3125 C 6.941406 0.3125 6.351562 0.25 5.875 0.125 C 5.394531 0.0078125 4.976562 -0.125 4.625 -0.28125 C 4.28125 -0.445312 3.960938 -0.585938 3.671875 -0.703125 C 3.390625 -0.828125 3.09375 -0.890625 2.78125 -0.890625 C 2 -0.890625 1.609375 -0.59375 1.609375 0 Z M 1.28125 0 "/></g></g></g></g></g><g transform="matrix(1, 0, 0, 1, 51, 14)"><g clip-path="url(#6a7ad5fd76)"><g clip-path="url(#d74c5870b5)"><g fill="#ffffff" fill-opacity="1"><g transform="translate(0.595697, 19.91392)"><g><path d="M 12.890625 -16.15625 C 14.015625 -16.15625 14.914062 -15.976562 15.59375 -15.625 C 16.28125 -15.269531 16.800781 -14.828125 17.15625 -14.296875 C 17.507812 -13.765625 17.75 -13.238281 17.875 -12.71875 C 18.007812 -12.207031 18.078125 -11.789062 18.078125 -11.46875 C 18.078125 -10.445312 17.820312 -9.378906 17.3125 -8.265625 C 16.8125 -7.160156 16.132812 -6.0625 15.28125 -4.96875 C 14.4375 -3.882812 13.484375 -2.859375 12.421875 -1.890625 C 11.367188 -0.921875 10.285156 -0.0625 9.171875 0.6875 C 8.054688 1.4375 6.976562 2.023438 5.9375 2.453125 C 4.90625 2.878906 3.984375 3.09375 3.171875 3.09375 C 2.753906 3.09375 2.316406 3.019531 1.859375 2.875 C 1.398438 2.726562 0.992188 2.53125 0.640625 2.28125 C 0.296875 2.039062 0.0820312 1.757812 0 1.4375 C -0.0820312 1.125 0.0351562 0.804688 0.359375 0.484375 C 0.460938 0.378906 0.535156 0.367188 0.578125 0.453125 C 0.628906 0.546875 0.695312 0.660156 0.78125 0.796875 C 0.875 0.941406 1.019531 1.078125 1.21875 1.203125 C 1.425781 1.335938 1.726562 1.40625 2.125 1.40625 C 2.914062 1.40625 3.8125 1.1875 4.8125 0.75 C 5.820312 0.320312 6.859375 -0.269531 7.921875 -1.03125 C 8.984375 -1.789062 10.015625 -2.65625 11.015625 -3.625 C 12.015625 -4.59375 12.910156 -5.617188 13.703125 -6.703125 C 14.503906 -7.785156 15.144531 -8.867188 15.625 -9.953125 C 16.101562 -11.046875 16.34375 -12.078125 16.34375 -13.046875 C 16.34375 -13.367188 16.148438 -13.65625 15.765625 -13.90625 C 15.378906 -14.164062 14.835938 -14.296875 14.140625 -14.296875 C 13.515625 -14.296875 12.878906 -14.242188 12.234375 -14.140625 C 12.421875 -13.921875 12.515625 -13.726562 12.515625 -13.5625 C 12.515625 -13.457031 12.320312 -13.148438 11.9375 -12.640625 C 11.550781 -12.140625 11.050781 -11.507812 10.4375 -10.75 C 9.820312 -10 9.175781 -9.179688 8.5 -8.296875 C 7.820312 -7.410156 7.175781 -6.523438 6.5625 -5.640625 C 5.945312 -4.753906 5.445312 -3.925781 5.0625 -3.15625 C 4.6875 -2.394531 4.5 -1.757812 4.5 -1.25 C 4.5 -0.976562 4.53125 -0.804688 4.59375 -0.734375 C 4.664062 -0.671875 4.742188 -0.648438 4.828125 -0.671875 C 4.910156 -0.703125 4.96875 -0.695312 5 -0.65625 C 5.082031 -0.5625 5.066406 -0.429688 4.953125 -0.265625 C 4.847656 -0.109375 4.671875 -0.03125 4.421875 -0.03125 C 4.023438 -0.03125 3.71875 -0.21875 3.5 -0.59375 C 3.28125 -0.976562 3.171875 -1.492188 3.171875 -2.140625 C 3.171875 -2.703125 3.304688 -3.363281 3.578125 -4.125 C 3.847656 -4.882812 4.210938 -5.6875 4.671875 -6.53125 C 5.128906 -7.382812 5.628906 -8.234375 6.171875 -9.078125 C 6.722656 -9.921875 7.269531 -10.71875 7.8125 -11.46875 C 8.351562 -12.21875 8.847656 -12.863281 9.296875 -13.40625 C 8.285156 -13.050781 7.34375 -12.613281 6.46875 -12.09375 C 5.59375 -11.570312 4.828125 -11.023438 4.171875 -10.453125 C 3.515625 -9.878906 3.003906 -9.316406 2.640625 -8.765625 C 2.273438 -8.210938 2.09375 -7.707031 2.09375 -7.25 C 2.09375 -6.925781 2.125 -6.648438 2.1875 -6.421875 C 2.257812 -6.191406 2.296875 -6.078125 2.296875 -6.078125 C 2.296875 -6.078125 2.207031 -6.109375 2.03125 -6.171875 C 1.863281 -6.242188 1.675781 -6.359375 1.46875 -6.515625 C 1.257812 -6.679688 1.066406 -6.910156 0.890625 -7.203125 C 0.722656 -7.503906 0.640625 -7.894531 0.640625 -8.375 C 0.640625 -9.070312 0.851562 -9.78125 1.28125 -10.5 C 1.71875 -11.226562 2.328125 -11.925781 3.109375 -12.59375 C 3.898438 -13.269531 4.804688 -13.875 5.828125 -14.40625 C 6.859375 -14.945312 7.972656 -15.375 9.171875 -15.6875 C 10.378906 -16 11.617188 -16.15625 12.890625 -16.15625 Z M 12.890625 -16.15625 "/></g></g></g></g><g fill="#ffffff" fill-opacity="1"><g transform="translate(16.344713, 19.91392)"><g><path d="M 8.015625 -4.546875 C 8.304688 -4.785156 8.492188 -4.898438 8.578125 -4.890625 C 8.660156 -4.878906 8.6875 -4.804688 8.65625 -4.671875 C 8.625 -4.535156 8.5625 -4.390625 8.46875 -4.234375 C 8.382812 -4.085938 8.316406 -3.976562 8.265625 -3.90625 C 8.046875 -3.5625 7.726562 -3.164062 7.3125 -2.71875 C 6.894531 -2.28125 6.414062 -1.851562 5.875 -1.4375 C 5.332031 -1.019531 4.757812 -0.675781 4.15625 -0.40625 C 3.550781 -0.132812 2.941406 0 2.328125 0 C 1.628906 0 1.066406 -0.257812 0.640625 -0.78125 C 0.210938 -1.300781 0 -1.953125 0 -2.734375 C 0 -3.492188 0.195312 -4.238281 0.59375 -4.96875 C 1 -5.707031 1.5 -6.363281 2.09375 -6.9375 C 2.6875 -7.519531 3.289062 -7.976562 3.90625 -8.3125 C 4.53125 -8.65625 5.078125 -8.828125 5.546875 -8.828125 C 6.035156 -8.828125 6.460938 -8.679688 6.828125 -8.390625 C 7.191406 -8.109375 7.375 -7.644531 7.375 -7 C 7.375 -6.738281 7.285156 -6.414062 7.109375 -6.03125 C 6.929688 -5.65625 6.679688 -5.273438 6.359375 -4.890625 C 6.035156 -4.503906 5.664062 -4.179688 5.25 -3.921875 C 4.832031 -3.671875 4.382812 -3.546875 3.90625 -3.546875 C 3.613281 -3.546875 3.367188 -3.617188 3.171875 -3.765625 C 2.984375 -3.910156 2.84375 -4.066406 2.75 -4.234375 C 2.65625 -4.066406 2.554688 -3.816406 2.453125 -3.484375 C 2.347656 -3.148438 2.320312 -2.835938 2.375 -2.546875 C 2.4375 -2.265625 2.648438 -2.085938 3.015625 -2.015625 C 3.503906 -1.929688 3.984375 -1.96875 4.453125 -2.125 C 4.921875 -2.289062 5.375 -2.519531 5.8125 -2.8125 C 6.257812 -3.101562 6.671875 -3.410156 7.046875 -3.734375 C 7.421875 -4.054688 7.742188 -4.328125 8.015625 -4.546875 Z M 5.84375 -6.96875 C 5.46875 -6.96875 5.015625 -6.757812 4.484375 -6.34375 C 3.960938 -5.925781 3.503906 -5.421875 3.109375 -4.828125 C 3.484375 -4.878906 3.863281 -5.019531 4.25 -5.25 C 4.632812 -5.476562 4.976562 -5.722656 5.28125 -5.984375 C 5.59375 -6.253906 5.804688 -6.484375 5.921875 -6.671875 C 6.046875 -6.867188 6.019531 -6.96875 5.84375 -6.96875 Z M 5.84375 -6.96875 "/></g></g></g><g fill="#ffffff" fill-opacity="1"><g transform="translate(23.313076, 19.91392)"><g><path d="M 8.296875 -8.890625 C 8.296875 -8.242188 8.113281 -7.523438 7.75 -6.734375 C 7.382812 -5.953125 6.90625 -5.164062 6.3125 -4.375 C 5.726562 -3.582031 5.109375 -2.851562 4.453125 -2.1875 C 3.796875 -1.53125 3.171875 -1 2.578125 -0.59375 C 1.992188 -0.195312 1.523438 0 1.171875 0 C 1.085938 0 0.953125 -0.078125 0.765625 -0.234375 C 0.578125 -0.398438 0.398438 -0.628906 0.234375 -0.921875 C 0.078125 -1.222656 0 -1.578125 0 -1.984375 C 0 -2.535156 0.0859375 -3.125 0.265625 -3.75 C 0.441406 -4.382812 0.664062 -5.003906 0.9375 -5.609375 C 1.21875 -6.210938 1.503906 -6.757812 1.796875 -7.25 C 2.097656 -7.738281 2.367188 -8.132812 2.609375 -8.4375 C 2.847656 -8.738281 3.023438 -8.890625 3.140625 -8.890625 C 3.597656 -8.890625 3.984375 -8.796875 4.296875 -8.609375 C 4.617188 -8.421875 4.78125 -8.140625 4.78125 -7.765625 C 4.78125 -7.710938 4.675781 -7.507812 4.46875 -7.15625 C 4.257812 -6.8125 4.015625 -6.390625 3.734375 -5.890625 C 3.453125 -5.398438 3.1875 -4.898438 2.9375 -4.390625 C 2.695312 -3.878906 2.519531 -3.441406 2.40625 -3.078125 C 2.300781 -2.710938 2.320312 -2.488281 2.46875 -2.40625 C 2.675781 -2.40625 2.957031 -2.578125 3.3125 -2.921875 C 3.675781 -3.273438 4.066406 -3.726562 4.484375 -4.28125 C 4.898438 -4.832031 5.289062 -5.421875 5.65625 -6.046875 C 6.019531 -6.679688 6.320312 -7.28125 6.5625 -7.84375 C 6.800781 -8.414062 6.921875 -8.882812 6.921875 -9.25 C 6.921875 -9.65625 6.875 -9.925781 6.78125 -10.0625 C 6.695312 -10.195312 6.628906 -10.285156 6.578125 -10.328125 C 6.535156 -10.367188 6.546875 -10.429688 6.609375 -10.515625 C 6.765625 -10.671875 6.972656 -10.6875 7.234375 -10.5625 C 7.503906 -10.445312 7.75 -10.238281 7.96875 -9.9375 C 8.1875 -9.644531 8.296875 -9.296875 8.296875 -8.890625 Z M 8.296875 -8.890625 "/></g></g></g><g fill="#ffffff" fill-opacity="1"><g transform="translate(30.204864, 19.91392)"><g><path d="M 8.015625 -4.546875 C 8.304688 -4.785156 8.492188 -4.898438 8.578125 -4.890625 C 8.660156 -4.878906 8.6875 -4.804688 8.65625 -4.671875 C 8.625 -4.535156 8.5625 -4.390625 8.46875 -4.234375 C 8.382812 -4.085938 8.316406 -3.976562 8.265625 -3.90625 C 8.046875 -3.5625 7.726562 -3.164062 7.3125 -2.71875 C 6.894531 -2.28125 6.414062 -1.851562 5.875 -1.4375 C 5.332031 -1.019531 4.757812 -0.675781 4.15625 -0.40625 C 3.550781 -0.132812 2.941406 0 2.328125 0 C 1.628906 0 1.066406 -0.257812 0.640625 -0.78125 C 0.210938 -1.300781 0 -1.953125 0 -2.734375 C 0 -3.492188 0.195312 -4.238281 0.59375 -4.96875 C 1 -5.707031 1.5 -6.363281 2.09375 -6.9375 C 2.6875 -7.519531 3.289062 -7.976562 3.90625 -8.3125 C 4.53125 -8.65625 5.078125 -8.828125 5.546875 -8.828125 C 6.035156 -8.828125 6.460938 -8.679688 6.828125 -8.390625 C 7.191406 -8.109375 7.375 -7.644531 7.375 -7 C 7.375 -6.738281 7.285156 -6.414062 7.109375 -6.03125 C 6.929688 -5.65625 6.679688 -5.273438 6.359375 -4.890625 C 6.035156 -4.503906 5.664062 -4.179688 5.25 -3.921875 C 4.832031 -3.671875 4.382812 -3.546875 3.90625 -3.546875 C 3.613281 -3.546875 3.367188 -3.617188 3.171875 -3.765625 C 2.984375 -3.910156 2.84375 -4.066406 2.75 -4.234375 C 2.65625 -4.066406 2.554688 -3.816406 2.453125 -3.484375 C 2.347656 -3.148438 2.320312 -2.835938 2.375 -2.546875 C 2.4375 -2.265625 2.648438 -2.085938 3.015625 -2.015625 C 3.503906 -1.929688 3.984375 -1.96875 4.453125 -2.125 C 4.921875 -2.289062 5.375 -2.519531 5.8125 -2.8125 C 6.257812 -3.101562 6.671875 -3.410156 7.046875 -3.734375 C 7.421875 -4.054688 7.742188 -4.328125 8.015625 -4.546875 Z M 5.84375 -6.96875 C 5.46875 -6.96875 5.015625 -6.757812 4.484375 -6.34375 C 3.960938 -5.925781 3.503906 -5.421875 3.109375 -4.828125 C 3.484375 -4.878906 3.863281 -5.019531 4.25 -5.25 C 4.632812 -5.476562 4.976562 -5.722656 5.28125 -5.984375 C 5.59375 -6.253906 5.804688 -6.484375 5.921875 -6.671875 C 6.046875 -6.867188 6.019531 -6.96875 5.84375 -6.96875 Z M 5.84375 -6.96875 "/></g></g></g><g fill="#ffffff" fill-opacity="1"><g transform="translate(37.173227, 19.91392)"><g><path d="M 8.703125 -6.046875 C 8.910156 -6.234375 9.039062 -6.265625 9.09375 -6.140625 C 9.144531 -6.015625 9.144531 -5.816406 9.09375 -5.546875 C 9.039062 -5.285156 8.953125 -5.015625 8.828125 -4.734375 C 8.710938 -4.453125 8.585938 -4.234375 8.453125 -4.078125 C 8.003906 -3.617188 7.601562 -3.257812 7.25 -3 C 6.90625 -2.75 6.59375 -2.554688 6.3125 -2.421875 C 5.8125 -1.710938 5.242188 -1.128906 4.609375 -0.671875 C 3.972656 -0.222656 3.332031 0 2.6875 0 C 2.394531 0 2.035156 -0.078125 1.609375 -0.234375 C 1.179688 -0.398438 0.804688 -0.675781 0.484375 -1.0625 C 0.160156 -1.457031 0 -1.988281 0 -2.65625 C 0 -3.132812 0.0703125 -3.601562 0.21875 -4.0625 C 0.375 -4.519531 0.566406 -4.898438 0.796875 -5.203125 C 1.035156 -5.515625 1.253906 -5.671875 1.453125 -5.671875 C 1.535156 -5.671875 1.613281 -5.671875 1.6875 -5.671875 C 1.769531 -5.671875 1.847656 -5.660156 1.921875 -5.640625 C 2.109375 -6.597656 2.550781 -7.378906 3.25 -7.984375 C 3.957031 -8.585938 4.78125 -8.890625 5.71875 -8.890625 C 6.34375 -8.890625 6.835938 -8.65625 7.203125 -8.1875 C 7.578125 -7.71875 7.765625 -7.191406 7.765625 -6.609375 C 7.765625 -6.285156 7.734375 -5.957031 7.671875 -5.625 C 7.609375 -5.289062 7.523438 -4.957031 7.421875 -4.625 C 7.648438 -4.8125 7.867188 -5.019531 8.078125 -5.25 C 8.296875 -5.488281 8.503906 -5.753906 8.703125 -6.046875 Z M 5.40625 -7.765625 C 5.101562 -7.765625 4.789062 -7.640625 4.46875 -7.390625 C 4.144531 -7.140625 3.875 -6.804688 3.65625 -6.390625 C 3.445312 -5.972656 3.34375 -5.507812 3.34375 -5 C 3.34375 -4.5625 3.46875 -4.238281 3.71875 -4.03125 C 3.976562 -3.832031 4.269531 -3.695312 4.59375 -3.625 C 4.90625 -4.238281 5.160156 -4.863281 5.359375 -5.5 C 5.566406 -6.132812 5.679688 -6.671875 5.703125 -7.109375 C 5.734375 -7.546875 5.632812 -7.765625 5.40625 -7.765625 Z M 2.265625 -1.65625 C 2.492188 -1.4375 2.738281 -1.398438 3 -1.546875 C 3.257812 -1.691406 3.523438 -1.953125 3.796875 -2.328125 C 3.515625 -2.410156 3.253906 -2.515625 3.015625 -2.640625 C 2.773438 -2.765625 2.570312 -2.929688 2.40625 -3.140625 C 2.28125 -2.816406 2.195312 -2.519531 2.15625 -2.25 C 2.113281 -1.976562 2.148438 -1.78125 2.265625 -1.65625 Z M 2.265625 -1.65625 "/></g></g></g><g fill="#ffffff" fill-opacity="1"><g transform="translate(44.728673, 19.91392)"><g><path d="M 5.03125 -4.78125 C 5.320312 -5.050781 5.492188 -5.097656 5.546875 -4.921875 C 5.609375 -4.753906 5.566406 -4.488281 5.421875 -4.125 C 5.273438 -3.757812 5.035156 -3.414062 4.703125 -3.09375 C 4.578125 -2.96875 4.347656 -2.738281 4.015625 -2.40625 C 3.679688 -2.082031 3.316406 -1.734375 2.921875 -1.359375 C 2.523438 -0.992188 2.144531 -0.675781 1.78125 -0.40625 C 1.425781 -0.132812 1.144531 0 0.9375 0 C 0.570312 0 0.320312 -0.179688 0.1875 -0.546875 C 0.0625 -0.910156 0 -1.25 0 -1.5625 C 0 -2.269531 0.125 -3.066406 0.375 -3.953125 C 0.632812 -4.835938 0.96875 -5.753906 1.375 -6.703125 C 1.78125 -7.648438 2.21875 -8.5625 2.6875 -9.4375 C 3.15625 -10.3125 3.617188 -11.101562 4.078125 -11.8125 C 4.546875 -12.519531 4.945312 -13.082031 5.28125 -13.5 C 5.625 -13.914062 5.863281 -14.125 6 -14.125 C 6.113281 -14.125 6.296875 -14.054688 6.546875 -13.921875 C 6.804688 -13.796875 7.039062 -13.644531 7.25 -13.46875 C 7.46875 -13.300781 7.578125 -13.132812 7.578125 -12.96875 C 7.578125 -12.851562 7.410156 -12.570312 7.078125 -12.125 C 6.753906 -11.6875 6.320312 -11.050781 5.78125 -10.21875 C 5.25 -9.394531 4.671875 -8.363281 4.046875 -7.125 C 3.421875 -5.894531 2.828125 -4.429688 2.265625 -2.734375 C 2.304688 -2.679688 2.453125 -2.742188 2.703125 -2.921875 C 2.960938 -3.097656 3.265625 -3.320312 3.609375 -3.59375 C 3.960938 -3.875 4.273438 -4.128906 4.546875 -4.359375 C 4.816406 -4.585938 4.976562 -4.726562 5.03125 -4.78125 Z M 5.03125 -4.78125 "/></g></g></g><g fill="#ffffff" fill-opacity="1"><g transform="translate(49.221099, 19.91392)"><g><path d="M 7.25 -8.828125 C 7.625 -8.828125 7.910156 -8.660156 8.109375 -8.328125 C 8.316406 -8.003906 8.421875 -7.5625 8.421875 -7 C 8.421875 -6.757812 8.34375 -6.363281 8.1875 -5.8125 C 8.039062 -5.269531 7.828125 -4.664062 7.546875 -4 C 7.265625 -3.34375 6.929688 -2.710938 6.546875 -2.109375 C 6.160156 -1.503906 5.738281 -1 5.28125 -0.59375 C 4.820312 -0.195312 4.335938 0 3.828125 0 C 3.421875 0 3.085938 -0.132812 2.828125 -0.40625 C 2.578125 -0.675781 2.425781 -0.972656 2.375 -1.296875 C 2.320312 -1.617188 2.378906 -1.867188 2.546875 -2.046875 C 2.671875 -2.179688 2.753906 -2.203125 2.796875 -2.109375 C 2.835938 -2.015625 2.898438 -1.96875 2.984375 -1.96875 C 3.390625 -1.96875 3.769531 -2.132812 4.125 -2.46875 C 4.488281 -2.800781 4.8125 -3.210938 5.09375 -3.703125 C 5.375 -4.191406 5.613281 -4.679688 5.8125 -5.171875 C 6.007812 -5.671875 6.15625 -6.085938 6.25 -6.421875 C 6.351562 -6.753906 6.40625 -6.921875 6.40625 -6.921875 C 6.40625 -6.921875 6.226562 -6.789062 5.875 -6.53125 C 5.519531 -6.28125 5.0625 -5.878906 4.5 -5.328125 C 3.9375 -4.773438 3.328125 -4.050781 2.671875 -3.15625 C 2.023438 -2.257812 1.414062 -1.171875 0.84375 0.109375 C 0.445312 0.992188 0.0351562 1.972656 -0.390625 3.046875 C -0.828125 4.128906 -1.273438 5.3125 -1.734375 6.59375 C -1.867188 6.976562 -1.894531 7.25 -1.8125 7.40625 C -1.726562 7.5625 -1.738281 7.65625 -1.84375 7.6875 C -1.988281 7.71875 -2.175781 7.671875 -2.40625 7.546875 C -2.632812 7.421875 -2.835938 7.210938 -3.015625 6.921875 C -3.203125 6.628906 -3.296875 6.269531 -3.296875 5.84375 C -3.296875 5.175781 -3.15625 4.359375 -2.875 3.390625 C -2.59375 2.421875 -2.226562 1.382812 -1.78125 0.28125 C -1.34375 -0.8125 -0.867188 -1.890625 -0.359375 -2.953125 C 0.148438 -4.023438 0.632812 -5.003906 1.09375 -5.890625 C 1.550781 -6.773438 1.941406 -7.484375 2.265625 -8.015625 C 2.585938 -8.546875 2.785156 -8.8125 2.859375 -8.8125 C 3.296875 -8.8125 3.710938 -8.6875 4.109375 -8.4375 C 4.503906 -8.1875 4.703125 -7.9375 4.703125 -7.6875 C 4.703125 -7.613281 4.617188 -7.4375 4.453125 -7.15625 C 4.296875 -6.875 4.070312 -6.460938 3.78125 -5.921875 C 4.457031 -6.742188 5.101562 -7.429688 5.71875 -7.984375 C 6.332031 -8.546875 6.84375 -8.828125 7.25 -8.828125 Z M 7.25 -8.828125 "/></g></g></g><g fill="#ffffff" fill-opacity="1"><g transform="translate(57.210471, 19.91392)"><g><path d="M 8.015625 -4.546875 C 8.304688 -4.785156 8.492188 -4.898438 8.578125 -4.890625 C 8.660156 -4.878906 8.6875 -4.804688 8.65625 -4.671875 C 8.625 -4.535156 8.5625 -4.390625 8.46875 -4.234375 C 8.382812 -4.085938 8.316406 -3.976562 8.265625 -3.90625 C 8.046875 -3.5625 7.726562 -3.164062 7.3125 -2.71875 C 6.894531 -2.28125 6.414062 -1.851562 5.875 -1.4375 C 5.332031 -1.019531 4.757812 -0.675781 4.15625 -0.40625 C 3.550781 -0.132812 2.941406 0 2.328125 0 C 1.628906 0 1.066406 -0.257812 0.640625 -0.78125 C 0.210938 -1.300781 0 -1.953125 0 -2.734375 C 0 -3.492188 0.195312 -4.238281 0.59375 -4.96875 C 1 -5.707031 1.5 -6.363281 2.09375 -6.9375 C 2.6875 -7.519531 3.289062 -7.976562 3.90625 -8.3125 C 4.53125 -8.65625 5.078125 -8.828125 5.546875 -8.828125 C 6.035156 -8.828125 6.460938 -8.679688 6.828125 -8.390625 C 7.191406 -8.109375 7.375 -7.644531 7.375 -7 C 7.375 -6.738281 7.285156 -6.414062 7.109375 -6.03125 C 6.929688 -5.65625 6.679688 -5.273438 6.359375 -4.890625 C 6.035156 -4.503906 5.664062 -4.179688 5.25 -3.921875 C 4.832031 -3.671875 4.382812 -3.546875 3.90625 -3.546875 C 3.613281 -3.546875 3.367188 -3.617188 3.171875 -3.765625 C 2.984375 -3.910156 2.84375 -4.066406 2.75 -4.234375 C 2.65625 -4.066406 2.554688 -3.816406 2.453125 -3.484375 C 2.347656 -3.148438 2.320312 -2.835938 2.375 -2.546875 C 2.4375 -2.265625 2.648438 -2.085938 3.015625 -2.015625 C 3.503906 -1.929688 3.984375 -1.96875 4.453125 -2.125 C 4.921875 -2.289062 5.375 -2.519531 5.8125 -2.8125 C 6.257812 -3.101562 6.671875 -3.410156 7.046875 -3.734375 C 7.421875 -4.054688 7.742188 -4.328125 8.015625 -4.546875 Z M 5.84375 -6.96875 C 5.46875 -6.96875 5.015625 -6.757812 4.484375 -6.34375 C 3.960938 -5.925781 3.503906 -5.421875 3.109375 -4.828125 C 3.484375 -4.878906 3.863281 -5.019531 4.25 -5.25 C 4.632812 -5.476562 4.976562 -5.722656 5.28125 -5.984375 C 5.59375 -6.253906 5.804688 -6.484375 5.921875 -6.671875 C 6.046875 -6.867188 6.019531 -6.96875 5.84375 -6.96875 Z M 5.84375 -6.96875 "/></g></g></g><g fill="#ffffff" fill-opacity="1"><g transform="translate(64.740476, 19.91392)"><g><path d="M 7.6875 -4.5625 C 7.976562 -4.84375 8.171875 -4.910156 8.265625 -4.765625 C 8.359375 -4.617188 8.351562 -4.375 8.25 -4.03125 C 8.144531 -3.6875 7.921875 -3.351562 7.578125 -3.03125 C 7.429688 -2.882812 7.175781 -2.648438 6.8125 -2.328125 C 6.457031 -2.003906 6.066406 -1.660156 5.640625 -1.296875 C 5.210938 -0.941406 4.820312 -0.632812 4.46875 -0.375 C 4.113281 -0.125 3.847656 0 3.671875 0 C 3.554688 0 3.394531 -0.128906 3.1875 -0.390625 C 2.988281 -0.660156 2.890625 -1.1875 2.890625 -1.96875 C 2.890625 -2.257812 2.953125 -2.628906 3.078125 -3.078125 C 3.203125 -3.523438 3.359375 -4 3.546875 -4.5 C 3.734375 -5.007812 3.925781 -5.492188 4.125 -5.953125 C 4.320312 -6.410156 4.492188 -6.800781 4.640625 -7.125 C 4.640625 -7.125 4.554688 -7.109375 4.390625 -7.078125 C 4.222656 -7.054688 4.007812 -7.03125 3.75 -7 C 3.320312 -6.363281 2.769531 -5.675781 2.09375 -4.9375 C 1.425781 -4.195312 0.648438 -3.425781 -0.234375 -2.625 C -0.398438 -2.457031 -0.535156 -2.445312 -0.640625 -2.59375 C -0.753906 -2.738281 -0.796875 -2.941406 -0.765625 -3.203125 C -0.742188 -3.460938 -0.617188 -3.679688 -0.390625 -3.859375 C 0.0546875 -4.191406 0.53125 -4.660156 1.03125 -5.265625 C 1.53125 -5.867188 1.976562 -6.460938 2.375 -7.046875 C 2.050781 -7.128906 1.773438 -7.269531 1.546875 -7.46875 C 1.328125 -7.664062 1.21875 -7.957031 1.21875 -8.34375 C 1.21875 -8.769531 1.320312 -9.1875 1.53125 -9.59375 C 1.75 -10.007812 2.050781 -10.347656 2.4375 -10.609375 C 2.820312 -10.867188 3.269531 -11 3.78125 -11 C 4.375 -11 4.742188 -10.789062 4.890625 -10.375 C 5.046875 -9.957031 4.972656 -9.375 4.671875 -8.625 C 4.910156 -8.695312 5.148438 -8.757812 5.390625 -8.8125 C 5.628906 -8.875 5.847656 -8.90625 6.046875 -8.90625 L 6.046875 -8.890625 C 6.492188 -8.890625 6.910156 -8.757812 7.296875 -8.5 C 7.691406 -8.25 7.890625 -7.992188 7.890625 -7.734375 C 7.890625 -7.648438 7.765625 -7.429688 7.515625 -7.078125 C 7.273438 -6.734375 6.984375 -6.300781 6.640625 -5.78125 C 6.296875 -5.257812 5.957031 -4.703125 5.625 -4.109375 C 5.289062 -3.515625 5.03125 -2.921875 4.84375 -2.328125 C 4.945312 -2.410156 5.140625 -2.554688 5.421875 -2.765625 C 5.703125 -2.984375 6 -3.210938 6.3125 -3.453125 C 6.632812 -3.703125 6.925781 -3.929688 7.1875 -4.140625 C 7.445312 -4.359375 7.613281 -4.5 7.6875 -4.5625 Z M 3.25 -9.59375 C 3.039062 -9.59375 2.867188 -9.507812 2.734375 -9.34375 C 2.609375 -9.175781 2.578125 -8.992188 2.640625 -8.796875 C 2.703125 -8.597656 2.882812 -8.472656 3.1875 -8.421875 C 3.363281 -8.765625 3.460938 -9.046875 3.484375 -9.265625 C 3.503906 -9.484375 3.425781 -9.59375 3.25 -9.59375 Z M 3.25 -9.59375 "/></g></g></g><g fill="#ffffff" fill-opacity="1"><g transform="translate(71.913043, 19.91392)"><g/></g></g><g fill="#ffffff" fill-opacity="1"><g transform="translate(79.417436, 19.91392)"><g><path d="M 11.71875 -16.15625 C 12.15625 -16.15625 12.613281 -16.03125 13.09375 -15.78125 C 13.570312 -15.539062 13.976562 -15.144531 14.3125 -14.59375 C 14.644531 -14.050781 14.8125 -13.3125 14.8125 -12.375 C 14.8125 -11.289062 14.5625 -10.445312 14.0625 -9.84375 C 13.570312 -9.238281 13.03125 -8.9375 12.4375 -8.9375 C 12.070312 -8.9375 11.75 -9.007812 11.46875 -9.15625 C 11.195312 -9.300781 11.117188 -9.429688 11.234375 -9.546875 C 11.640625 -9.953125 11.945312 -10.441406 12.15625 -11.015625 C 12.375 -11.597656 12.507812 -12.171875 12.5625 -12.734375 C 12.613281 -13.296875 12.59375 -13.765625 12.5 -14.140625 C 12.40625 -14.515625 12.265625 -14.703125 12.078125 -14.703125 C 11.816406 -14.703125 11.570312 -14.523438 11.34375 -14.171875 C 11.113281 -13.828125 10.890625 -13.375 10.671875 -12.8125 C 10.460938 -12.25 10.273438 -11.628906 10.109375 -10.953125 C 9.953125 -10.273438 9.828125 -9.601562 9.734375 -8.9375 C 9.304688 -6.769531 8.859375 -4.960938 8.390625 -3.515625 C 7.921875 -2.078125 7.457031 -0.914062 7 -0.03125 C 6.550781 0.84375 6.125 1.503906 5.71875 1.953125 C 5.320312 2.398438 4.972656 2.703125 4.671875 2.859375 C 4.367188 3.015625 4.125 3.09375 3.9375 3.09375 C 3.757812 3.09375 3.671875 3.09375 3.671875 3.09375 C 3.671875 3.09375 3.660156 2.914062 3.640625 2.5625 C 3.628906 2.21875 3.601562 1.769531 3.5625 1.21875 C 3.519531 0.675781 3.441406 0.0976562 3.328125 -0.515625 C 3.222656 -1.128906 3.070312 -1.707031 2.875 -2.25 C 2.675781 -2.789062 2.429688 -3.234375 2.140625 -3.578125 C 1.847656 -3.929688 1.492188 -4.109375 1.078125 -4.109375 C 0.753906 -4.109375 0.582031 -4.046875 0.5625 -3.921875 C 0.539062 -3.804688 0.484375 -3.695312 0.390625 -3.59375 C 0.296875 -3.507812 0.207031 -3.472656 0.125 -3.484375 C 0.0390625 -3.503906 0 -3.65625 0 -3.9375 C 0 -4.125 0.0976562 -4.285156 0.296875 -4.421875 C 0.503906 -4.554688 0.75 -4.660156 1.03125 -4.734375 C 1.3125 -4.804688 1.570312 -4.84375 1.8125 -4.84375 C 2.613281 -4.84375 3.238281 -4.6875 3.6875 -4.375 C 4.132812 -4.0625 4.460938 -3.703125 4.671875 -3.296875 C 4.890625 -2.890625 5.03125 -2.523438 5.09375 -2.203125 C 5.15625 -1.890625 5.1875 -1.734375 5.1875 -1.734375 C 5.625 -2.398438 5.984375 -3.210938 6.265625 -4.171875 C 6.546875 -5.128906 6.785156 -6.148438 6.984375 -7.234375 C 7.191406 -8.316406 7.410156 -9.382812 7.640625 -10.4375 C 7.867188 -11.5 8.148438 -12.457031 8.484375 -13.3125 C 8.816406 -14.175781 9.242188 -14.863281 9.765625 -15.375 C 10.285156 -15.894531 10.9375 -16.15625 11.71875 -16.15625 Z M 11.71875 -16.15625 "/></g></g></g><g fill="#ffffff" fill-opacity="1"><g transform="translate(89.780646, 19.91392)"><g><path d="M 8.703125 -6.046875 C 8.910156 -6.234375 9.039062 -6.265625 9.09375 -6.140625 C 9.144531 -6.015625 9.144531 -5.816406 9.09375 -5.546875 C 9.039062 -5.285156 8.953125 -5.015625 8.828125 -4.734375 C 8.710938 -4.453125 8.585938 -4.234375 8.453125 -4.078125 C 8.003906 -3.617188 7.601562 -3.257812 7.25 -3 C 6.90625 -2.75 6.59375 -2.554688 6.3125 -2.421875 C 5.8125 -1.710938 5.242188 -1.128906 4.609375 -0.671875 C 3.972656 -0.222656 3.332031 0 2.6875 0 C 2.394531 0 2.035156 -0.078125 1.609375 -0.234375 C 1.179688 -0.398438 0.804688 -0.675781 0.484375 -1.0625 C 0.160156 -1.457031 0 -1.988281 0 -2.65625 C 0 -3.132812 0.0703125 -3.601562 0.21875 -4.0625 C 0.375 -4.519531 0.566406 -4.898438 0.796875 -5.203125 C 1.035156 -5.515625 1.253906 -5.671875 1.453125 -5.671875 C 1.535156 -5.671875 1.613281 -5.671875 1.6875 -5.671875 C 1.769531 -5.671875 1.847656 -5.660156 1.921875 -5.640625 C 2.109375 -6.597656 2.550781 -7.378906 3.25 -7.984375 C 3.957031 -8.585938 4.78125 -8.890625 5.71875 -8.890625 C 6.34375 -8.890625 6.835938 -8.65625 7.203125 -8.1875 C 7.578125 -7.71875 7.765625 -7.191406 7.765625 -6.609375 C 7.765625 -6.285156 7.734375 -5.957031 7.671875 -5.625 C 7.609375 -5.289062 7.523438 -4.957031 7.421875 -4.625 C 7.648438 -4.8125 7.867188 -5.019531 8.078125 -5.25 C 8.296875 -5.488281 8.503906 -5.753906 8.703125 -6.046875 Z M 5.40625 -7.765625 C 5.101562 -7.765625 4.789062 -7.640625 4.46875 -7.390625 C 4.144531 -7.140625 3.875 -6.804688 3.65625 -6.390625 C 3.445312 -5.972656 3.34375 -5.507812 3.34375 -5 C 3.34375 -4.5625 3.46875 -4.238281 3.71875 -4.03125 C 3.976562 -3.832031 4.269531 -3.695312 4.59375 -3.625 C 4.90625 -4.238281 5.160156 -4.863281 5.359375 -5.5 C 5.566406 -6.132812 5.679688 -6.671875 5.703125 -7.109375 C 5.734375 -7.546875 5.632812 -7.765625 5.40625 -7.765625 Z M 2.265625 -1.65625 C 2.492188 -1.4375 2.738281 -1.398438 3 -1.546875 C 3.257812 -1.691406 3.523438 -1.953125 3.796875 -2.328125 C 3.515625 -2.410156 3.253906 -2.515625 3.015625 -2.640625 C 2.773438 -2.765625 2.570312 -2.929688 2.40625 -3.140625 C 2.28125 -2.816406 2.195312 -2.519531 2.15625 -2.25 C 2.113281 -1.976562 2.148438 -1.78125 2.265625 -1.65625 Z M 2.265625 -1.65625 "/></g></g></g><g fill="#ffffff" fill-opacity="1"><g transform="translate(97.336092, 19.91392)"><g><path d="M 10.546875 -4.5625 C 10.835938 -4.851562 11.03125 -4.921875 11.125 -4.765625 C 11.226562 -4.617188 11.226562 -4.375 11.125 -4.03125 C 11.03125 -3.6875 10.8125 -3.351562 10.46875 -3.03125 C 10.3125 -2.882812 10.050781 -2.648438 9.6875 -2.328125 C 9.320312 -2.003906 8.925781 -1.65625 8.5 -1.28125 C 8.070312 -0.914062 7.675781 -0.601562 7.3125 -0.34375 C 6.945312 -0.09375 6.679688 0.03125 6.515625 0.03125 C 6.390625 0.03125 6.222656 -0.0976562 6.015625 -0.359375 C 5.816406 -0.628906 5.71875 -1.15625 5.71875 -1.9375 C 5.71875 -2.632812 5.851562 -3.394531 6.125 -4.21875 C 6.394531 -5.050781 6.710938 -5.816406 7.078125 -6.515625 C 5.796875 -5.472656 4.78125 -4.582031 4.03125 -3.84375 C 3.28125 -3.101562 2.71875 -2.488281 2.34375 -2 C 1.96875 -1.519531 1.722656 -1.15625 1.609375 -0.90625 C 1.492188 -0.65625 1.4375 -0.503906 1.4375 -0.453125 C 1.4375 -0.453125 1.4375 -0.445312 1.4375 -0.4375 C 1.4375 -0.4375 1.425781 -0.4375 1.40625 -0.4375 C 1.382812 -0.257812 1.347656 -0.132812 1.296875 -0.0625 C 1.242188 0 1.125 0.03125 0.9375 0.03125 C 0.570312 0.03125 0.320312 -0.140625 0.1875 -0.484375 C 0.0625 -0.835938 0 -1.175781 0 -1.5 C 0 -2.300781 0.125 -3.171875 0.375 -4.109375 C 0.632812 -5.046875 0.96875 -5.984375 1.375 -6.921875 C 1.78125 -7.867188 2.226562 -8.773438 2.71875 -9.640625 C 3.207031 -10.515625 3.675781 -11.289062 4.125 -11.96875 C 4.570312 -12.65625 4.96875 -13.191406 5.3125 -13.578125 C 5.664062 -13.972656 5.910156 -14.171875 6.046875 -14.171875 C 6.171875 -14.171875 6.394531 -14.09375 6.71875 -13.9375 C 7.039062 -13.78125 7.34375 -13.601562 7.625 -13.40625 C 7.90625 -13.21875 8.046875 -13.039062 8.046875 -12.875 C 8.046875 -12.75 7.972656 -12.597656 7.828125 -12.421875 C 7.679688 -12.253906 7.460938 -12.003906 7.171875 -11.671875 C 6.878906 -11.347656 6.523438 -10.878906 6.109375 -10.265625 C 5.691406 -9.648438 5.203125 -8.84375 4.640625 -7.84375 C 4.078125 -6.851562 3.457031 -5.597656 2.78125 -4.078125 C 3.289062 -4.609375 3.851562 -5.160156 4.46875 -5.734375 C 5.09375 -6.304688 5.707031 -6.832031 6.3125 -7.3125 C 6.914062 -7.800781 7.453125 -8.191406 7.921875 -8.484375 C 8.390625 -8.785156 8.71875 -8.9375 8.90625 -8.9375 C 9.351562 -8.9375 9.773438 -8.804688 10.171875 -8.546875 C 10.578125 -8.296875 10.78125 -8.039062 10.78125 -7.78125 C 10.78125 -7.695312 10.65625 -7.476562 10.40625 -7.125 C 10.15625 -6.769531 9.851562 -6.332031 9.5 -5.8125 C 9.15625 -5.289062 8.8125 -4.726562 8.46875 -4.125 C 8.132812 -3.519531 7.875 -2.921875 7.6875 -2.328125 C 7.789062 -2.410156 7.984375 -2.554688 8.265625 -2.765625 C 8.546875 -2.984375 8.847656 -3.21875 9.171875 -3.46875 C 9.492188 -3.726562 9.785156 -3.957031 10.046875 -4.15625 C 10.304688 -4.363281 10.472656 -4.5 10.546875 -4.5625 Z M 10.546875 -4.5625 "/></g></g></g><g fill="#ffffff" fill-opacity="1"><g transform="translate(107.444052, 19.91392)"><g><path d="M 9.984375 -4.5625 C 10.273438 -4.851562 10.46875 -4.921875 10.5625 -4.765625 C 10.65625 -4.617188 10.648438 -4.375 10.546875 -4.03125 C 10.441406 -3.6875 10.21875 -3.363281 9.875 -3.0625 C 9.726562 -2.90625 9.46875 -2.660156 9.09375 -2.328125 C 8.726562 -2.003906 8.335938 -1.660156 7.921875 -1.296875 C 7.503906 -0.941406 7.113281 -0.632812 6.75 -0.375 C 6.382812 -0.125 6.125 0 5.96875 0 C 5.851562 0 5.6875 -0.128906 5.46875 -0.390625 C 5.257812 -0.660156 5.15625 -1.1875 5.15625 -1.96875 C 5.15625 -2.394531 5.207031 -2.835938 5.3125 -3.296875 C 4.96875 -2.796875 4.59375 -2.289062 4.1875 -1.78125 C 3.789062 -1.269531 3.398438 -0.84375 3.015625 -0.5 C 2.640625 -0.164062 2.304688 0 2.015625 0 C 1.441406 0 0.960938 -0.234375 0.578125 -0.703125 C 0.191406 -1.171875 0 -1.742188 0 -2.421875 C 0 -3.066406 0.164062 -3.765625 0.5 -4.515625 C 0.832031 -5.265625 1.285156 -5.972656 1.859375 -6.640625 C 2.441406 -7.304688 3.097656 -7.847656 3.828125 -8.265625 C 4.554688 -8.691406 5.316406 -8.90625 6.109375 -8.90625 C 6.441406 -8.90625 6.707031 -8.796875 6.90625 -8.578125 C 7.101562 -8.367188 7.253906 -8.148438 7.359375 -7.921875 C 7.796875 -8.578125 8.125 -8.90625 8.34375 -8.90625 C 8.789062 -8.90625 9.207031 -8.78125 9.59375 -8.53125 C 9.988281 -8.289062 10.1875 -8.039062 10.1875 -7.78125 C 10.1875 -7.6875 10.0625 -7.460938 9.8125 -7.109375 C 9.570312 -6.765625 9.28125 -6.332031 8.9375 -5.8125 C 8.59375 -5.289062 8.253906 -4.726562 7.921875 -4.125 C 7.585938 -3.519531 7.332031 -2.921875 7.15625 -2.328125 C 7.25 -2.410156 7.4375 -2.554688 7.71875 -2.765625 C 8 -2.984375 8.296875 -3.21875 8.609375 -3.46875 C 8.929688 -3.726562 9.222656 -3.957031 9.484375 -4.15625 C 9.742188 -4.363281 9.910156 -4.5 9.984375 -4.5625 Z M 2.53125 -2.40625 C 2.664062 -2.40625 2.894531 -2.566406 3.21875 -2.890625 C 3.539062 -3.210938 3.910156 -3.609375 4.328125 -4.078125 C 4.742188 -4.554688 5.144531 -5.035156 5.53125 -5.515625 C 5.925781 -6.003906 6.253906 -6.421875 6.515625 -6.765625 C 6.785156 -7.109375 6.925781 -7.285156 6.9375 -7.296875 C 6.976562 -7.335938 7.003906 -7.375 7.015625 -7.40625 C 6.953125 -7.414062 6.84375 -7.421875 6.6875 -7.421875 C 6.25 -7.421875 5.789062 -7.25 5.3125 -6.90625 C 4.832031 -6.570312 4.382812 -6.15625 3.96875 -5.65625 C 3.550781 -5.164062 3.195312 -4.671875 2.90625 -4.171875 C 2.613281 -3.671875 2.425781 -3.25 2.34375 -2.90625 C 2.257812 -2.570312 2.320312 -2.40625 2.53125 -2.40625 Z M 2.53125 -2.40625 "/></g></g></g><g fill="#ffffff" fill-opacity="1"><g transform="translate(117.067027, 19.91392)"><g><path d="M 4.796875 -4.5625 C 5.085938 -4.84375 5.28125 -4.910156 5.375 -4.765625 C 5.46875 -4.617188 5.46875 -4.375 5.375 -4.03125 C 5.28125 -3.6875 5.0625 -3.351562 4.71875 -3.03125 C 4.570312 -2.882812 4.328125 -2.648438 3.984375 -2.328125 C 3.640625 -2.003906 3.269531 -1.660156 2.875 -1.296875 C 2.488281 -0.941406 2.125 -0.632812 1.78125 -0.375 C 1.445312 -0.125 1.191406 0 1.015625 0 C 0.929688 0 0.804688 -0.03125 0.640625 -0.09375 C 0.484375 -0.164062 0.335938 -0.335938 0.203125 -0.609375 C 0.0664062 -0.878906 0 -1.332031 0 -1.96875 C 0 -2.507812 0.0820312 -3.085938 0.25 -3.703125 C 0.425781 -4.328125 0.648438 -4.945312 0.921875 -5.5625 C 1.191406 -6.175781 1.472656 -6.734375 1.765625 -7.234375 C 2.054688 -7.734375 2.332031 -8.132812 2.59375 -8.4375 C 2.851562 -8.738281 3.050781 -8.890625 3.1875 -8.890625 C 3.632812 -8.890625 4.03125 -8.78125 4.375 -8.5625 C 4.726562 -8.351562 4.90625 -8.117188 4.90625 -7.859375 C 4.90625 -7.753906 4.789062 -7.523438 4.5625 -7.171875 C 4.332031 -6.816406 4.050781 -6.367188 3.71875 -5.828125 C 3.382812 -5.296875 3.054688 -4.726562 2.734375 -4.125 C 2.410156 -3.519531 2.15625 -2.921875 1.96875 -2.328125 C 2.082031 -2.410156 2.273438 -2.554688 2.546875 -2.765625 C 2.828125 -2.984375 3.125 -3.210938 3.4375 -3.453125 C 3.75 -3.703125 4.035156 -3.929688 4.296875 -4.140625 C 4.566406 -4.359375 4.734375 -4.5 4.796875 -4.5625 Z M 6.203125 -13.453125 C 6.785156 -13.535156 7.21875 -13.476562 7.5 -13.28125 C 7.78125 -13.09375 7.9375 -12.878906 7.96875 -12.640625 C 8 -12.398438 7.984375 -12.253906 7.921875 -12.203125 C 7.867188 -12.148438 7.75 -12.066406 7.5625 -11.953125 C 7.382812 -11.847656 7.132812 -11.613281 6.8125 -11.25 C 6.488281 -10.894531 6.082031 -10.296875 5.59375 -9.453125 C 5.59375 -9.453125 5.5 -9.492188 5.3125 -9.578125 C 5.125 -9.660156 4.929688 -9.785156 4.734375 -9.953125 C 4.535156 -10.128906 4.421875 -10.332031 4.390625 -10.5625 C 4.367188 -10.75 4.414062 -11 4.53125 -11.3125 C 4.644531 -11.632812 4.796875 -11.953125 4.984375 -12.265625 C 5.179688 -12.578125 5.390625 -12.847656 5.609375 -13.078125 C 5.835938 -13.304688 6.035156 -13.429688 6.203125 -13.453125 Z M 6.203125 -13.453125 "/></g></g></g><g fill="#ffffff" fill-opacity="1"><g transform="translate(121.406307, 19.91392)"><g><path d="M 5.03125 -4.78125 C 5.320312 -5.050781 5.492188 -5.097656 5.546875 -4.921875 C 5.609375 -4.753906 5.566406 -4.488281 5.421875 -4.125 C 5.273438 -3.757812 5.035156 -3.414062 4.703125 -3.09375 C 4.578125 -2.96875 4.347656 -2.738281 4.015625 -2.40625 C 3.679688 -2.082031 3.316406 -1.734375 2.921875 -1.359375 C 2.523438 -0.992188 2.144531 -0.675781 1.78125 -0.40625 C 1.425781 -0.132812 1.144531 0 0.9375 0 C 0.570312 0 0.320312 -0.179688 0.1875 -0.546875 C 0.0625 -0.910156 0 -1.25 0 -1.5625 C 0 -2.269531 0.125 -3.066406 0.375 -3.953125 C 0.632812 -4.835938 0.96875 -5.753906 1.375 -6.703125 C 1.78125 -7.648438 2.21875 -8.5625 2.6875 -9.4375 C 3.15625 -10.3125 3.617188 -11.101562 4.078125 -11.8125 C 4.546875 -12.519531 4.945312 -13.082031 5.28125 -13.5 C 5.625 -13.914062 5.863281 -14.125 6 -14.125 C 6.113281 -14.125 6.296875 -14.054688 6.546875 -13.921875 C 6.804688 -13.796875 7.039062 -13.644531 7.25 -13.46875 C 7.46875 -13.300781 7.578125 -13.132812 7.578125 -12.96875 C 7.578125 -12.851562 7.410156 -12.570312 7.078125 -12.125 C 6.753906 -11.6875 6.320312 -11.050781 5.78125 -10.21875 C 5.25 -9.394531 4.671875 -8.363281 4.046875 -7.125 C 3.421875 -5.894531 2.828125 -4.429688 2.265625 -2.734375 C 2.304688 -2.679688 2.453125 -2.742188 2.703125 -2.921875 C 2.960938 -3.097656 3.265625 -3.320312 3.609375 -3.59375 C 3.960938 -3.875 4.273438 -4.128906 4.546875 -4.359375 C 4.816406 -4.585938 4.976562 -4.726562 5.03125 -4.78125 Z M 5.03125 -4.78125 "/></g></g></g><g fill="#ffffff" fill-opacity="1"><g transform="translate(125.904213, 19.91392)"><g/></g></g></g></g></svg>